<mxfile>
    <diagram id="Qgtg0u2-0fXKcyZDpHmY" name="Page-1">
        <mxGraphModel dx="898" dy="627" grid="1" gridSize="10" guides="1" tooltips="1" connect="1" arrows="1" fold="1" page="1" pageScale="1" pageWidth="827" pageHeight="1169" math="0" shadow="0">
            <root>
                <mxCell id="0"/>
                <mxCell id="1" parent="0"/>
                <mxCell id="Jsvv7c-2DjLnWJOICeth-2" value="" style="rounded=0;whiteSpace=wrap;html=1;fillColor=#b1ddf0;strokeColor=#10739e;" vertex="1" parent="1">
                    <mxGeometry x="120" y="160" width="120" height="60" as="geometry"/>
                </mxCell>
                <mxCell id="Jsvv7c-2DjLnWJOICeth-3" value="" style="rounded=0;whiteSpace=wrap;html=1;" vertex="1" parent="1">
                    <mxGeometry x="320" y="160" width="120" height="60" as="geometry"/>
                </mxCell>
            </root>
        </mxGraphModel>
    </diagram>
</mxfile>